<?xml version="1.0" encoding="utf-8"?>
<!-- Generator: Adobe Illustrator 19.2.0, SVG Export Plug-In . SVG Version: 6.00 Build 0)  -->
<svg version="1.1" id="bear" xmlns="http://www.w3.org/2000/svg" xmlns:xlink="http://www.w3.org/1999/xlink" x="0px" y="0px"
	 viewBox="0 0 224 197.4376" enable-background="new 0 0 224 197.4376" xml:space="preserve">
<g>
	<path fill="#A48659" d="M224,37.4376c0-19.8516-16.1504-36-36-36c-17.7812,0-32.5528,12.9688-35.4492,29.9376
		c17.4296,9.0936,31.4412,23.8396,39.5996,41.8044C210.0508,71.1096,224,55.8828,224,37.4376z M184,49.4376c0-2.2108,1.7912-4,4-4
		c4.412,0,8-3.59,8-8s-3.588-8-8-8s-8,3.59-8,8c0,2.2108-1.7912,4-4,4s-4-1.7892-4-4c0-8.8244,7.1776-16,16-16s16,7.1756,16,16
		s-7.1776,16-16,16C185.7912,53.4376,184,51.6484,184,49.4376z"/>
	<path fill="#A48659" d="M71.6524,31.2736C69.3244,13.6524,54.244,0,36,0C16.1504,0,0,16.1484,0,36
		c0,18.6564,14.2676,34.0392,32.4648,35.8204C40.7364,54.3984,54.5704,40.1252,71.6524,31.2736z M50,40c-2.2088,0-4-1.7888-4-4
		c0-5.5156-4.4864-10-10-10s-10,4.4844-10,10s4.4864,10,10,10c2.2088,0,4,1.7892,4,4c0,2.2112-1.7912,4-4,4
		c-9.9256,0-18-8.074-18-18c0-9.9256,8.0744-18,18-18s18,8.0744,18,18C54,38.2112,52.2088,40,50,40z"/>
	<path fill="#BC9A67" d="M152.5508,31.3752c-12.1444-6.332-25.9316-9.9376-40.5508-9.9376c-14.5392,0-28.252,3.5664-40.3476,9.836
		c-17.082,8.8516-30.916,23.1248-39.1876,40.5468C27.0448,83.2344,24,95.9844,24,109.4376c0,48.5236,39.4764,88,88,88
		s88-39.4764,88-88c0-12.9256-2.8244-25.1952-7.8496-36.258C183.992,55.2148,169.9804,40.4688,152.5508,31.3752z M104,81.4376
		c0,2.2108-1.7912,4-4,4s-4-1.7892-4-4c0-6.6172-5.3828-12-12-12s-12,5.3828-12,12c0,2.2108-1.7912,4-4,4s-4-1.7892-4-4
		c0-11.0272,8.9728-20,20-20S104,70.4104,104,81.4376z M112,185.4376c-26.4668,0-48-19.7384-48-44c0-22.6288,0-44,48-44
		s48,21.3712,48,44C160,165.6992,138.4668,185.4376,112,185.4376z M156,85.4376c-2.2088,0-4-1.7892-4-4c0-6.6172-5.3828-12-12-12
		s-12,5.3828-12,12c0,2.2108-1.7912,4-4,4s-4-1.7892-4-4c0-11.0272,8.9728-20,20-20s20,8.9728,20,20
		C160,83.6484,158.2088,85.4376,156,85.4376z"/>
	<path fill="#FCD1C0" d="M112,97.4376c-48,0-48,21.3712-48,44c0,24.2616,21.5332,44,48,44s48-19.7384,48-44
		C160,118.8088,160,97.4376,112,97.4376z M112,133.4376c-6.6172,0-12-5.3828-12-12c0-6.6172,5.3828-12,12-12s12,5.3828,12,12
		C124,128.0548,118.6172,133.4376,112,133.4376z"/>
	<path fill="#FE8657" d="M112,109.4376c-6.6172,0-12,5.3828-12,12c0,6.6172,5.3828,12,12,12s12-5.3828,12-12
		C124,114.8204,118.6172,109.4376,112,109.4376z"/>
	<path fill="#89714D" d="M204,37.4376c0-8.8244-7.1776-16-16-16s-16,7.1756-16,16c0,2.2108,1.7912,4,4,4s4-1.7892,4-4
		c0-4.41,3.588-8,8-8s8,3.59,8,8s-3.588,8-8,8c-2.2088,0-4,1.7892-4,4s1.7912,4,4,4C196.8224,53.4376,204,46.262,204,37.4376z"/>
	<path fill="#89714D" d="M36,18c-9.9256,0-18,8.0744-18,18c0,9.926,8.0744,18,18,18c2.2088,0,4-1.7888,4-4c0-2.2108-1.7912-4-4-4
		c-5.5136,0-10-4.4844-10-10s4.4864-10,10-10s10,4.4844,10,10c0,2.2112,1.7912,4,4,4s4-1.7888,4-4C54,26.0744,45.9256,18,36,18z"/>
	<path fill="#89714D" d="M140,61.4376c-11.0272,0-20,8.9728-20,20c0,2.2108,1.7912,4,4,4s4-1.7892,4-4c0-6.6172,5.3828-12,12-12
		s12,5.3828,12,12c0,2.2108,1.7912,4,4,4s4-1.7892,4-4C160,70.4104,151.0272,61.4376,140,61.4376z"/>
	<path fill="#89714D" d="M64,81.4376c0,2.2108,1.7912,4,4,4s4-1.7892,4-4c0-6.6172,5.3828-12,12-12s12,5.3828,12,12
		c0,2.2108,1.7912,4,4,4s4-1.7892,4-4c0-11.0272-8.9728-20-20-20S64,70.4104,64,81.4376z"/>
</g>
</svg>
